<svg xmlns="http://www.w3.org/2000/svg" viewBox="0 0 64 64" width="512" height="512">
  <rect width="64" height="64" rx="15" fill="#10161F"/>
  <rect x="1.25" y="1.25" width="61.5" height="61.5" rx="13.75" fill="none" stroke="#56C2E0" stroke-opacity=".22"/>
  <path d="M32 8 49 15 49 31 C49 42 42 49 32 52.5 C22 49 15 42 15 31 L15 15 Z" fill="rgba(86,194,224,.08)" stroke="#56C2E0" stroke-width="2"/>
  <circle cx="32" cy="30.5" r="13" stroke="#56C2E0" stroke-opacity=".28" stroke-width="1.3" fill="none"/>
  <circle cx="32" cy="30.5" r="8.2" stroke="#56C2E0" stroke-opacity=".45" stroke-width="1.3" fill="none"/>
  <path d="M32 30.5 L32 17.5 A13 13 0 0 1 44.2 26 Z" fill="url(#sw)"/>
  <circle cx="32" cy="30.5" r="2.6" fill="#56C2E0"/>
  <path d="M32 15v2.6M32 43.4V46M16.4 30.5H19M45 30.5h2.6" stroke="#56C2E0" stroke-width="1.5" stroke-linecap="round"/>
  <defs><radialGradient id="sw" cx="32" cy="30.5" r="13" gradientUnits="userSpaceOnUse"><stop stop-color="#56C2E0" stop-opacity=".55"/><stop offset="1" stop-color="#56C2E0" stop-opacity="0"/></radialGradient></defs>
</svg>
